<?xml version="1.0" encoding="utf-8"?>
<!-- Generator: Adobe Illustrator 16.0.0, SVG Export Plug-In . SVG Version: 6.00 Build 0)  -->
<!DOCTYPE svg PUBLIC "-//W3C//DTD SVG 1.1//EN" "http://www.w3.org/Graphics/SVG/1.1/DTD/svg11.dtd">
<svg version="1.1" id="Layer_1" xmlns="http://www.w3.org/2000/svg" xmlns:xlink="http://www.w3.org/1999/xlink" x="0px" y="0px"
	 width="589px" height="297px" viewBox="0 0 589 297" enable-background="new 0 0 589 297" xml:space="preserve">
<g>
	<g>
		<path d="M52.452,170.668c0.057-0.929,0.101-2.512,0.13-4.75c0.029-2.236,0.043-4.88,0.043-7.931s0-6.406,0-10.066
			s0-7.408,0-11.242s0-7.654,0-11.46c0-3.805,0-7.364,0-10.676c0-3.312-0.015-6.275-0.043-8.889c-0.03-2.615-0.073-4.676-0.13-6.188
			c2.266,0,4.763-0.014,7.495-0.044c2.73-0.028,5.519-0.057,8.366-0.087c2.846-0.029,5.635-0.072,8.367-0.131
			c2.73-0.057,5.286-0.116,7.669-0.174c0.057,0.872,0.087,1.714,0.087,2.527c0,0.814,0,1.627,0,2.44c0,1.686-0.03,3.429-0.087,5.229
			c-0.059,1.801-0.146,3.603-0.261,5.403H66.57v13.072h14.554v14.815H66.57c0,2.906,0.014,5.782,0.043,8.628
			c0.029,2.847,0.057,5.521,0.087,8.018c0.029,2.499,0.072,4.75,0.131,6.754c0.057,2.004,0.116,3.588,0.174,4.75H52.452z"/>
		<path d="M127.489,170.668h-11.939v-4.271c-2.092,1.686-4.3,2.978-6.624,3.878c-2.325,0.9-4.59,1.351-6.798,1.351
			c-2.614,0-5.026-0.64-7.233-1.917c-2.208-1.277-4.111-3.064-5.708-5.36c-1.599-2.294-2.862-5.04-3.791-8.236
			c-0.93-3.194-1.395-6.68-1.395-10.458c0-3.95,0.493-7.639,1.481-11.068c0.987-3.427,2.338-6.405,4.052-8.933
			c1.713-2.527,3.748-4.502,6.101-5.926c2.353-1.423,4.894-2.135,7.625-2.135c2.382,0,4.648,0.509,6.798,1.525
			c2.149,1.017,3.979,2.281,5.491,3.791v-4.358h12.375L127.489,170.668z M100.646,139.207c0,2.383,0.654,4.3,1.961,5.752
			c1.307,1.453,2.977,2.179,5.011,2.179c2.207,0,4.081-0.785,5.621-2.353c1.539-1.569,2.31-3.573,2.31-6.014
			c0-1.103-0.189-2.148-0.567-3.137c-0.378-0.987-0.915-1.844-1.612-2.571c-0.697-0.726-1.511-1.292-2.44-1.7
			c-0.93-0.406-1.917-0.61-2.963-0.61c-2.092,0-3.835,0.784-5.229,2.353C101.344,134.675,100.646,136.709,100.646,139.207z"/>
		<path d="M143.174,118.552l0.61,6.624c0.697-1.103,1.539-2.12,2.527-3.05c0.987-0.929,2.018-1.728,3.094-2.396
			c1.074-0.667,2.149-1.19,3.225-1.569c1.074-0.377,2.077-0.566,3.006-0.566c0.116,1.512,0.218,3.24,0.305,5.186
			c0.087,1.947,0.131,3.937,0.131,5.97c0,2.324-0.043,4.619-0.131,6.885c-0.087,2.266-0.189,4.357-0.305,6.275
			c-0.523-0.231-1.25-0.406-2.179-0.523c-0.93-0.116-1.714-0.174-2.353-0.174c-2.15,0-3.734,0.509-4.75,1.525
			c-1.017,1.018-1.525,2.281-1.525,3.791v24.141H132.02c0.057-9.412,0.101-18.345,0.13-26.798
			c0.029-8.454,0.044-16.892,0.044-25.317H143.174z"/>
		<path d="M178.208,117.594c7.087,0,12.157,2.325,15.208,6.972c3.05,4.649,4.575,11.329,4.575,20.044
			c0,8.773-1.525,15.469-4.575,20.088s-8.12,6.928-15.208,6.928c-7.146,0-12.245-2.309-15.295-6.928s-4.575-11.314-4.575-20.088
			c0-8.715,1.525-15.396,4.575-20.044C165.964,119.918,171.062,117.594,178.208,117.594z M178.208,151.146
			c1.162,0,2.192-0.231,3.094-0.697c0.9-0.464,1.641-1.074,2.222-1.83c0.58-0.754,1.016-1.612,1.308-2.571
			c0.29-0.959,0.436-1.961,0.436-3.007s-0.146-2.062-0.436-3.05c-0.292-0.987-0.728-1.859-1.308-2.614
			c-0.582-0.754-1.322-1.365-2.222-1.83c-0.901-0.464-1.932-0.697-3.094-0.697c-2.383,0-4.169,0.843-5.36,2.527
			c-1.191,1.686-1.787,3.573-1.787,5.665c0,1.046,0.145,2.048,0.436,3.007c0.29,0.958,0.741,1.816,1.351,2.571
			c0.61,0.756,1.351,1.366,2.222,1.83C175.942,150.915,176.988,151.146,178.208,151.146z"/>
	</g>
</g>
<g>
	<path stroke="#000000" stroke-width="6" stroke-miterlimit="10" d="M302.113,134.104c0,15.79-9.413,28.636-20.986,28.636
		c-5.583,0-10.649-3.009-14.411-7.879c9.855-6.824,16.209-34.853,16.209-34.853s-17.919-17.184-41,0c0,0,6.387,28.177,16.289,34.904
		c-3.758,4.837-8.811,7.828-14.372,7.828c-11.572,0-20.987-12.846-20.987-28.636h-5.809c0,20.16,12.019,36.564,26.795,36.564
		c7.242,0,13.815-3.957,18.642-10.355c4.828,6.398,11.398,10.355,18.642,10.355c14.776,0,26.796-16.404,26.796-36.564H302.113z"/>
	<path stroke="#000000" stroke-width="6" stroke-miterlimit="10" d="M251.117,124.774c0,0,10.273-7.315,23.08,0
		c0,0-6.85,20.521-11.764,20.521C257.52,145.295,251.117,124.774,251.117,124.774z"/>
</g>
<g>
	<g>
		<path d="M327.284,170.665l12.898-71.289h21.526l12.811,71.289h-14.729l-2.179-14.292h-13.421l-2.092,14.292H327.284z
			 M346.544,140.772h8.715l-4.357-28.759L346.544,140.772z"/>
		<path d="M388.986,118.549v4.619c1.162-1.859,2.715-3.253,4.663-4.183c1.946-0.929,4.022-1.395,6.231-1.395
			c2.092,0,4.009,0.451,5.752,1.351c1.743,0.901,3.079,2.339,4.009,4.313c1.046-1.858,2.628-3.268,4.75-4.227
			c2.12-0.958,4.43-1.438,6.928-1.438c3.776,0,6.667,1.207,8.671,3.617c2.004,2.412,3.007,6.464,3.007,12.157v37.3h-12.811V143.91
			c0-2.149-0.451-3.704-1.351-4.663c-0.901-0.958-1.932-1.438-3.094-1.438c-1.163,0-2.237,0.479-3.225,1.438
			c-0.988,0.958-1.481,2.281-1.481,3.965v27.452h-12.811v-25.709c0-2.266-0.509-3.922-1.525-4.968
			c-1.017-1.046-2.106-1.569-3.268-1.569c-1.163,0-2.194,0.509-3.094,1.525c-0.902,1.017-1.351,2.368-1.351,4.052v26.668h-12.637
			c0-1.743,0-3.689,0-5.839c0-2.149,0.014-4.328,0.043-6.537c0.029-2.207,0.044-4.313,0.044-6.318c0-2.004,0-3.761,0-5.272
			c0-1.452,0-3.325,0-5.621c0-2.294-0.015-4.75-0.044-7.364c-0.03-2.614-0.043-5.242-0.043-7.887c0-2.643,0-5.068,0-7.277H388.986z"
			/>
		<path d="M443.978,98.331c1.394,0,2.658,0.277,3.791,0.828c1.133,0.553,2.077,1.264,2.832,2.135
			c0.754,0.872,1.336,1.845,1.743,2.919c0.406,1.076,0.61,2.106,0.61,3.094c0,1.337-0.248,2.571-0.741,3.704
			c-0.494,1.133-1.163,2.122-2.004,2.963c-0.843,0.843-1.801,1.512-2.876,2.004c-1.076,0.494-2.222,0.741-3.442,0.741
			c-1.511,0-2.847-0.247-4.009-0.741c-1.163-0.493-2.135-1.133-2.919-1.917c-0.784-0.785-1.366-1.7-1.743-2.746
			c-0.377-1.045-0.566-2.12-0.566-3.225c0-1.103,0.218-2.236,0.654-3.398c0.436-1.162,1.045-2.223,1.83-3.181
			c0.784-0.958,1.756-1.728,2.919-2.31C441.217,98.622,442.524,98.331,443.978,98.331z M437.267,119.944h12.811v50.721h-12.811
			V119.944z"/>
		<path d="M484.763,164.564c-2.209,1.743-4.227,2.993-6.057,3.748c-1.83,0.756-3.821,1.133-5.97,1.133
			c-2.906,0-5.549-0.595-7.931-1.787c-2.383-1.19-4.431-2.846-6.144-4.967c-1.714-2.12-3.05-4.663-4.009-7.625
			c-0.959-2.963-1.438-6.216-1.438-9.761c0-3.835,0.537-7.421,1.612-10.763c1.074-3.34,2.556-6.275,4.444-8.802
			c1.888-2.527,4.081-4.517,6.58-5.97c2.497-1.452,5.17-2.179,8.018-2.179c4.241,0,7.873,1.773,10.894,5.316v-4.358h12.375v28.063
			c0,5.172-0.073,9.558-0.218,13.16c-0.146,3.603-0.363,6.449-0.653,8.541c-0.872,6.158-3.211,10.879-7.016,14.162
			c-3.807,3.282-8.817,4.924-15.034,4.924c-2.614,0-5.098-0.292-7.451-0.872c-2.353-0.582-4.518-1.424-6.493-2.527v-10.72
			c4.24,2.149,8.482,3.225,12.724,3.225c3.835,0,6.754-0.814,8.759-2.44c2.004-1.627,3.007-3.95,3.007-6.972V164.564z
			 M469.86,139.204c0,2.383,0.639,4.3,1.917,5.752c1.277,1.453,2.963,2.179,5.055,2.179c1.103,0,2.135-0.218,3.094-0.654
			s1.8-1.031,2.527-1.787c0.726-0.754,1.292-1.641,1.699-2.658c0.406-1.016,0.61-2.105,0.61-3.268c0-1.103-0.189-2.148-0.566-3.137
			c-0.379-0.987-0.915-1.844-1.612-2.571c-0.697-0.726-1.512-1.292-2.44-1.7c-0.93-0.406-1.917-0.61-2.963-0.61
			c-2.092,0-3.835,0.784-5.229,2.353C470.557,134.672,469.86,136.707,469.86,139.204z"/>
		<path d="M520.145,117.591c7.088,0,12.157,2.325,15.208,6.972c3.05,4.649,4.575,11.329,4.575,20.044
			c0,8.773-1.525,15.469-4.575,20.088c-3.051,4.619-8.12,6.928-15.208,6.928c-7.146,0-12.244-2.309-15.295-6.928
			c-3.05-4.619-4.575-11.314-4.575-20.088c0-8.715,1.525-15.396,4.575-20.044C507.9,119.916,512.998,117.591,520.145,117.591z
			 M520.145,151.144c1.161,0,2.192-0.231,3.094-0.697c0.9-0.464,1.641-1.074,2.223-1.83c0.58-0.754,1.016-1.612,1.307-2.571
			c0.29-0.959,0.436-1.961,0.436-3.007s-0.146-2.062-0.436-3.05c-0.291-0.987-0.727-1.859-1.307-2.614
			c-0.582-0.754-1.322-1.365-2.223-1.83c-0.901-0.464-1.933-0.697-3.094-0.697c-2.383,0-4.17,0.843-5.359,2.527
			c-1.192,1.686-1.787,3.573-1.787,5.665c0,1.046,0.145,2.048,0.436,3.007c0.29,0.958,0.741,1.816,1.352,2.571
			c0.609,0.756,1.351,1.366,2.222,1.83C517.879,150.912,518.925,151.144,520.145,151.144z"/>
	</g>
</g>
<g>
</g>
<g>
</g>
<g>
</g>
<g>
</g>
<g>
</g>
<g>
</g>
<g>
</g>
<g>
</g>
<g>
</g>
<g>
</g>
<g>
</g>
<g>
</g>
<g>
</g>
<g>
</g>
<g>
</g>
</svg>
